<?xml version="1.0" encoding="UTF-8" standalone="no"?>
<!DOCTYPE svg PUBLIC "-//W3C//DTD SVG 1.1//EN" "http://www.w3.org/Graphics/SVG/1.1/DTD/svg11.dtd">
<svg width="100%" height="100%" viewBox="0 0 751 470" version="1.1" xmlns="http://www.w3.org/2000/svg" xmlns:xlink="http://www.w3.org/1999/xlink" xml:space="preserve" xmlns:serif="http://www.serif.com/" style="fill-rule:evenodd;clip-rule:evenodd;stroke-linejoin:round;stroke-miterlimit:2;">
    <g id="Warstwa-1" serif:id="Warstwa 1" transform="matrix(1,0,0,1,-232.4,-322.27)">
        <g transform="matrix(1,0,0,1,576.939,451.06)">
            <path d="M0,197.89L1.48,197.89L1.48,261.829L31.791,261.829L31.791,319.68L-55.619,319.68L0,197.89ZM-104.22,319.68L-191.159,319.68L-191.159,130.23L-132.359,258.28L-130.729,261.829M-121.449,-60.67L-160.64,24.23L-200.529,-60.67L-121.449,-60.67ZM104.41,63.03L80.19,63.03L80.19,-0.91L51.881,-0.91L51.881,-60.67L104.41,-60.67L104.41,63.03ZM-152.439,197.89L-117.029,197.89L-115.399,194.329L-102.699,166.53L-101.039,162.9L-99.39,159.27L-77.81,112.04L-56.14,65.09L-56.14,133.95L-37,133.95L-73.619,214.119L-75.27,217.74L-76.93,221.38L-92.629,255.74L-125.869,255.74L-152.439,197.89ZM7.57,197.89L51.881,197.89L51.881,5.17L74.101,5.17L74.101,255.74L7.57,255.74L7.57,197.89ZM-177.75,2.13L-160.59,38.65L-160.14,37.69L-160.14,37.68L-159.279,35.82L-158.479,34.07L-157.619,32.21L-114.739,-60.67L-111.51,-67.67L-86.1,-122.71L16.48,-122.71L16.48,127.86L-50.049,127.86L-50.049,-91.5L-60.939,-67.67L-64.129,-60.67L-131.729,87.32L-132.449,88.89L-132.58,89.18L-133.39,90.94L-134.109,92.52L-134.239,92.81L-135.049,94.57L-135.77,96.15L-135.899,96.44L-150.25,127.86L-184.439,127.86L-211.42,69.11L-212.81,66.07L-214.209,63.03L-240.779,5.17L-242.18,2.13L-243.569,-0.91L-256.209,-28.43L-263.209,-43.68L-270.14,-58.77L-271.539,-61.81L-272.93,-64.85L-285.17,-91.5L-285.17,127.86L-338.449,127.86L-338.449,-122.71L-236.399,-122.71L-210.539,-67.67L-209.22,-64.85L-207.789,-61.81L-207.25,-60.67L-179.18,-0.91M-280.83,197.89L-249.779,197.89L-249.779,5.17L-247.529,5.17L-227.549,48.69L-227.549,255.74L-280.83,255.74L-280.83,197.89ZM22.57,-67.67L22.57,-128.79L-89.989,-128.79L-91.629,-125.26L-118.22,-67.67L-203.819,-67.67L-230.89,-125.3L-232.529,-128.79L-344.539,-128.79L-344.539,133.95L-315.229,133.95L-315.229,197.89L-286.92,197.89L-286.92,261.829L-263.209,261.829L-263.209,326.68L111.41,326.68L111.41,-67.67L22.57,-67.67Z" style="fill-rule:nonzero;"/>
        </g>
        <g transform="matrix(1,0,0,1,705.81,452.076)">
            <path d="M0,-67.993L17,-67.993L23.331,-27.865L23.505,-27.865L28.709,-67.993L46.056,-67.993L52.907,0L39.638,0L36.515,-48.966L36.342,-48.966L34.26,-32.193L28.709,0L18.734,0L12.403,-32.554L10.235,-47.703L10.235,-48.966L10.062,-48.966L8.153,0L-5.724,0L0,-67.993Z" style="fill-rule:nonzero;"/>
        </g>
        <g transform="matrix(1,0,0,1,783.088,418.079)">
            <path d="M0,0C0,1.984 0.086,3.983 0.26,5.997C0.434,8.012 0.794,10.415 1.344,13.21C1.893,16.006 2.832,18.276 4.163,20.019C5.492,21.764 7.169,22.634 9.193,22.634C11.217,22.634 12.893,21.764 14.224,20.019C15.553,18.276 16.492,16.006 17.043,13.21C17.592,10.415 17.953,8.012 18.127,5.997C18.3,3.983 18.387,1.984 18.387,0C18.387,-2.164 18.3,-4.252 18.127,-6.268C17.953,-8.281 17.592,-10.67 17.043,-13.436C16.492,-16.201 15.553,-18.426 14.224,-20.109C12.893,-21.792 11.217,-22.634 9.193,-22.634C7.169,-22.634 5.492,-21.792 4.163,-20.109C2.832,-18.426 1.893,-16.201 1.344,-13.436C0.794,-10.67 0.434,-8.281 0.26,-6.268C0.086,-4.252 0,-2.164 0,0M0.693,-33.14C3.353,-34.432 6.187,-35.079 9.193,-35.079C12.199,-35.079 15.033,-34.432 17.693,-33.14C20.352,-31.846 22.78,-29.862 24.979,-27.188C27.176,-24.513 28.925,-20.845 30.226,-16.187C31.527,-11.527 32.178,-6.132 32.178,0C32.178,6.131 31.527,11.528 30.226,16.187C28.925,20.846 27.176,24.514 24.979,27.188C22.78,29.864 20.352,31.848 17.693,33.139C15.033,34.432 12.199,35.079 9.193,35.079C6.187,35.079 3.353,34.432 0.693,33.139C-1.967,31.848 -4.396,29.864 -6.592,27.188C-8.79,24.514 -10.538,20.846 -11.84,16.187C-13.141,11.528 -13.791,6.131 -13.791,0C-13.791,-6.132 -13.141,-11.527 -11.84,-16.187C-10.538,-20.845 -8.79,-24.513 -6.592,-27.188C-4.396,-29.862 -1.967,-31.846 0.693,-33.14" style="fill-rule:nonzero;"/>
        </g>
        <g transform="matrix(1,0,0,1,850.219,453.158)">
            <path d="M0,-69.075L0,-19.929C0,-19.448 -0.087,-18.184 -0.261,-16.141C-0.435,-14.096 -0.694,-12.565 -1.041,-11.542C-1.389,-10.52 -1.938,-9.153 -2.689,-7.439C-3.441,-5.726 -4.352,-4.418 -5.421,-3.517C-6.492,-2.615 -7.908,-1.804 -9.671,-1.082C-11.436,-0.36 -13.416,0 -15.612,0C-19.602,0 -22.841,-0.692 -25.326,-2.074L-25.326,-15.51C-23.477,-12.985 -21.222,-11.723 -18.562,-11.723C-17.231,-11.723 -16.147,-12.023 -15.309,-12.624C-14.472,-13.224 -13.893,-14.158 -13.574,-15.42C-13.257,-16.683 -13.068,-17.734 -13.011,-18.576C-12.953,-19.417 -12.924,-20.651 -12.924,-22.273L-12.924,-69.075L0,-69.075Z" style="fill-rule:nonzero;"/>
        </g>
        <g transform="matrix(1,0,0,1,865.309,452.076)">
            <path d="M0,-67.993L26.02,-67.993L26.02,-55.368L12.923,-55.368L12.923,-40.579L24.459,-40.579L24.459,-27.954L12.923,-27.954L12.923,-12.625L26.193,-12.625L26.193,0L0,0L0,-67.993Z" style="fill-rule:nonzero;"/>
        </g>
        <g transform="matrix(1,0,0,1,705.81,560.287)">
            <path d="M0,-67.993L17,-67.993L23.331,-27.865L23.505,-27.865L28.709,-67.993L46.056,-67.993L52.907,0L39.638,0L36.515,-48.966L36.342,-48.966L34.26,-32.193L28.709,0L18.734,0L12.403,-32.554L10.235,-47.703L10.235,-48.966L10.062,-48.966L8.153,0L-5.724,0L0,-67.993Z" style="fill-rule:nonzero;"/>
        </g>
        <g transform="matrix(1,0,0,1,0,-125.419)">
            <rect x="771.639" y="617.713" width="12.923" height="67.993"/>
        </g>
        <g transform="matrix(1,0,0,1,822.551,514.387)">
            <path d="M0,23.807L-3.296,5.681L-4.771,-4.599L-4.943,-4.599L-6.331,5.681L-9.106,23.807L0,23.807ZM-11.188,-22.093L2.429,-22.093L18.127,45.9L4.337,45.9L1.908,34.448L-11.188,34.448L-13.53,45.9L-26.366,45.9L-11.188,-22.093Z" style="fill-rule:nonzero;"/>
        </g>
        <g transform="matrix(1,0,0,1,879.101,558.034)">
            <path d="M0,-63.486L0,-50.409C-3.181,-53.296 -6.304,-54.739 -9.367,-54.739C-11.393,-54.739 -12.981,-54.136 -14.138,-52.934C-15.295,-51.731 -15.872,-50.108 -15.872,-48.065C-15.872,-46.021 -15.193,-44.157 -13.834,-42.474C-12.477,-40.79 -10.828,-39.242 -8.891,-37.83C-6.954,-36.417 -5.031,-34.899 -3.123,-33.277C-1.215,-31.653 0.418,-29.534 1.777,-26.919C3.136,-24.304 3.815,-21.282 3.815,-17.857C3.815,-11.603 2.153,-6.508 -1.171,-2.572C-4.497,1.367 -9.107,3.336 -15.005,3.336C-19.4,3.336 -23.102,2.194 -26.107,-0.091L-26.107,-12.897C-22.754,-10.491 -19.487,-9.289 -16.307,-9.289C-14.168,-9.289 -12.39,-9.965 -10.972,-11.319C-9.556,-12.671 -8.848,-14.459 -8.848,-16.684C-8.848,-17.525 -8.964,-18.321 -9.194,-19.074C-9.426,-19.824 -9.687,-20.456 -9.975,-20.967C-10.265,-21.477 -10.727,-22.034 -11.362,-22.636C-11.999,-23.236 -12.49,-23.673 -12.837,-23.944C-13.184,-24.214 -13.806,-24.664 -14.701,-25.296C-15.599,-25.926 -16.191,-26.362 -16.479,-26.604C-20.586,-29.489 -23.621,-32.42 -25.587,-35.396C-27.553,-38.371 -28.535,-42.173 -28.535,-46.803C-28.535,-52.453 -27.018,-57.203 -23.982,-61.051C-20.946,-64.897 -16.77,-66.822 -11.449,-66.822C-7.459,-66.822 -3.644,-65.709 0,-63.486" style="fill-rule:nonzero;"/>
        </g>
        <g transform="matrix(1,0,0,1,893.41,560.287)">
            <path d="M0,-67.993L33.306,-67.993L33.306,-55.368L23.071,-55.368L23.071,0L10.147,0L10.147,-55.368L0,-55.368L0,-67.993Z" style="fill-rule:nonzero;"/>
        </g>
        <g transform="matrix(1,0,0,1,950.393,526.29)">
            <path d="M0,0C0,1.984 0.086,3.983 0.26,5.997C0.434,8.012 0.794,10.416 1.344,13.21C1.893,16.007 2.832,18.276 4.163,20.02C5.492,21.764 7.169,22.634 9.193,22.634C11.217,22.634 12.893,21.764 14.224,20.02C15.553,18.276 16.492,16.007 17.043,13.21C17.592,10.416 17.953,8.012 18.127,5.997C18.3,3.983 18.387,1.984 18.387,0C18.387,-2.164 18.3,-4.252 18.127,-6.268C17.953,-8.281 17.592,-10.67 17.043,-13.436C16.492,-16.201 15.553,-18.425 14.224,-20.109C12.893,-21.791 11.217,-22.634 9.193,-22.634C7.169,-22.634 5.492,-21.791 4.163,-20.109C2.832,-18.425 1.893,-16.201 1.344,-13.436C0.794,-10.67 0.434,-8.281 0.26,-6.268C0.086,-4.252 0,-2.164 0,0M0.693,-33.14C3.353,-34.432 6.187,-35.079 9.193,-35.079C12.199,-35.079 15.033,-34.432 17.693,-33.14C20.352,-31.846 22.78,-29.862 24.979,-27.187C27.176,-24.512 28.925,-20.845 30.226,-16.187C31.527,-11.527 32.178,-6.132 32.178,0C32.178,6.131 31.527,11.528 30.226,16.187C28.925,20.846 27.176,24.514 24.979,27.188C22.78,29.864 20.352,31.848 17.693,33.14C15.033,34.432 12.199,35.079 9.193,35.079C6.187,35.079 3.353,34.432 0.693,33.14C-1.967,31.848 -4.396,29.864 -6.592,27.188C-8.79,24.514 -10.538,20.846 -11.84,16.187C-13.141,11.528 -13.791,6.131 -13.791,0C-13.791,-6.132 -13.141,-11.527 -11.84,-16.187C-10.538,-20.845 -8.79,-24.512 -6.592,-27.187C-4.396,-29.862 -1.967,-31.846 0.693,-33.14" style="fill-rule:nonzero;"/>
        </g>
        <g transform="matrix(1,0,0,1,705.81,668.499)">
            <path d="M0,-67.994L17,-67.994L23.331,-27.866L23.505,-27.866L28.709,-67.994L46.056,-67.994L52.907,0L39.638,0L36.515,-48.966L36.342,-48.966L34.26,-32.194L28.709,0L18.734,0L12.403,-32.554L10.235,-47.704L10.235,-48.966L10.062,-48.966L8.153,0L-5.724,0L0,-67.994Z" style="fill-rule:nonzero;"/>
        </g>
        <g transform="matrix(1,0,0,1,783.088,634.502)">
            <path d="M0,0C0,1.984 0.086,3.983 0.26,5.997C0.434,8.012 0.794,10.415 1.344,13.211C1.893,16.007 2.832,18.276 4.163,20.02C5.492,21.764 7.169,22.634 9.193,22.634C11.217,22.634 12.893,21.764 14.224,20.02C15.553,18.276 16.492,16.007 17.043,13.211C17.592,10.415 17.953,8.012 18.127,5.997C18.3,3.983 18.387,1.984 18.387,0C18.387,-2.163 18.3,-4.252 18.127,-6.268C17.953,-8.281 17.592,-10.67 17.043,-13.436C16.492,-16.201 15.553,-18.425 14.224,-20.108C12.893,-21.791 11.217,-22.634 9.193,-22.634C7.169,-22.634 5.492,-21.791 4.163,-20.108C2.832,-18.425 1.893,-16.201 1.344,-13.436C0.794,-10.67 0.434,-8.281 0.26,-6.268C0.086,-4.252 0,-2.163 0,0M0.693,-33.14C3.353,-34.432 6.187,-35.079 9.193,-35.079C12.199,-35.079 15.033,-34.432 17.693,-33.14C20.352,-31.846 22.78,-29.862 24.979,-27.187C27.176,-24.512 28.925,-20.845 30.226,-16.187C31.527,-11.527 32.178,-6.132 32.178,0C32.178,6.132 31.527,11.528 30.226,16.187C28.925,20.846 27.176,24.515 24.979,27.188C22.78,29.864 20.352,31.849 17.693,33.14C15.033,34.433 12.199,35.079 9.193,35.079C6.187,35.079 3.353,34.433 0.693,33.14C-1.967,31.849 -4.396,29.864 -6.592,27.188C-8.79,24.515 -10.538,20.846 -11.84,16.187C-13.141,11.528 -13.791,6.132 -13.791,0C-13.791,-6.132 -13.141,-11.527 -11.84,-16.187C-10.538,-20.845 -8.79,-24.512 -6.592,-27.187C-4.396,-29.862 -1.967,-31.846 0.693,-33.14" style="fill-rule:nonzero;"/>
        </g>
        <g transform="matrix(1,0,0,1,850.219,669.581)">
            <path d="M0,-69.076L0,-19.929C0,-19.449 -0.087,-18.185 -0.261,-16.142C-0.435,-14.097 -0.694,-12.565 -1.041,-11.542C-1.389,-10.52 -1.938,-9.154 -2.689,-7.44C-3.441,-5.727 -4.352,-4.419 -5.421,-3.518C-6.492,-2.616 -7.908,-1.805 -9.671,-1.082C-11.436,-0.361 -13.416,0 -15.612,0C-19.602,0 -22.841,-0.693 -25.326,-2.075L-25.326,-15.511C-23.477,-12.986 -21.222,-11.724 -18.562,-11.724C-17.231,-11.724 -16.147,-12.024 -15.309,-12.625C-14.472,-13.225 -13.893,-14.159 -13.574,-15.42C-13.257,-16.683 -13.068,-17.735 -13.011,-18.577C-12.953,-19.417 -12.924,-20.652 -12.924,-22.274L-12.924,-69.076L0,-69.076Z" style="fill-rule:nonzero;"/>
        </g>
        <g transform="matrix(1,0,0,1,887.773,622.598)">
            <path d="M0,23.808L-3.296,5.682L-4.771,-4.598L-4.943,-4.598L-6.331,5.682L-9.106,23.808L0,23.808ZM-11.188,-22.093L2.429,-22.093L18.127,45.901L4.337,45.901L1.908,34.449L-11.188,34.449L-13.53,45.901L-26.366,45.901L-11.188,-22.093Z" style="fill-rule:nonzero;"/>
        </g>
        <g transform="matrix(1,0,0,1,705.81,776.71)">
            <path d="M0,-67.993L17,-67.993L23.331,-27.864L23.505,-27.864L28.709,-67.993L46.056,-67.993L52.907,0L39.638,0L36.515,-48.966L36.342,-48.966L34.26,-32.193L28.709,0L18.734,0L12.403,-32.554L10.235,-47.703L10.235,-48.966L10.062,-48.966L8.153,0L-5.724,0L0,-67.993Z" style="fill-rule:nonzero;"/>
        </g>
        <g transform="matrix(1,0,0,1,771.292,777.793)">
            <path d="M0,-69.076L12.923,-69.076L12.923,-25.07C12.923,-20.56 13.184,-17.585 13.704,-16.142C14.628,-13.496 16.508,-12.174 19.341,-12.174C20.556,-12.174 21.581,-12.385 22.42,-12.805C23.258,-13.225 23.895,-13.676 24.328,-14.158C24.762,-14.638 25.079,-15.434 25.282,-16.548C25.484,-17.66 25.614,-18.532 25.673,-19.163C25.729,-19.794 25.76,-20.801 25.76,-22.184L25.76,-69.076L38.683,-69.076L38.683,-19.478C38.683,-17.614 38.609,-15.991 38.466,-14.609C38.32,-13.225 37.887,-11.543 37.165,-9.559C36.441,-7.576 35.443,-5.952 34.173,-4.69C32.9,-3.427 30.977,-2.329 28.405,-1.398C25.831,-0.468 22.78,0 19.255,0C13.066,0 8.312,-1.533 4.987,-4.599C1.661,-7.665 0,-12.323 0,-18.577L0,-69.076Z" style="fill-rule:nonzero;"/>
        </g>
        <g transform="matrix(1,0,0,1,824.893,776.71)">
            <path d="M0,-67.993L38.422,-67.993L16.045,-12.624L36.601,-12.624L36.601,0L-2.775,0L18.994,-55.368L0,-55.368L0,-67.993Z" style="fill-rule:nonzero;"/>
        </g>
        <g transform="matrix(1,0,0,1,898.007,730.81)">
            <path d="M0,23.807L-3.296,5.682L-4.771,-4.598L-4.943,-4.598L-6.331,5.682L-9.106,23.807L0,23.807ZM-11.188,-22.093L2.429,-22.093L18.127,45.9L4.337,45.9L1.908,34.448L-11.188,34.448L-13.53,45.9L-26.366,45.9L-11.188,-22.093Z" style="fill-rule:nonzero;"/>
        </g>
        <g transform="matrix(0.90535,0.424666,0.424666,-0.90535,899.415,667.721)">
            <path d="M-3.002,-0.77L5.388,-0.77L1.23,-14.512L-4.733,-13.894L-3.002,-0.77Z" style="fill-rule:nonzero;"/>
        </g>
        <g transform="matrix(0.905304,0.424764,0.424764,-0.905304,909.545,776.339)">
            <path d="M-3.002,-0.771L5.388,-0.771L1.23,-14.512L-4.734,-13.895L-3.002,-0.771Z" style="fill-rule:nonzero;"/>
        </g>
    </g>
</svg>
